<svg xmlns="http://www.w3.org/2000/svg" viewBox="0 0 512 512" role="img" aria-label="LeMais">
  <rect width="512" height="512" rx="112" fill="#0f766e"/>
  <path d="M116 126c0-36 29-66 65-66h83c72 0 130 58 130 130v262H240c-69 0-124-56-124-124V126Z" fill="#ffffff" opacity=".18"/>
  <path d="M158 104h86c80 0 145 65 145 145v203H250c-80 0-145-65-145-145V157c0-29 24-53 53-53Z" fill="#ffffff"/>
  <path d="M208 213h112M208 270h112M208 327h70" fill="none" stroke="#0f766e" stroke-width="31" stroke-linecap="round"/>
  <path d="M360 73v104l48-29 48 29V73c0-16-13-29-29-29h-38c-16 0-29 13-29 29Z" fill="#c65f2b"/>
</svg>
